# xmcd
#
# Track frame offsets:
#	150
#	15953
#	30066
#	48057
#	69896
#	86976
#	103474
#	131386
#	145266
#	165252
#	180913
#	214163
#
# Disc length: 3168 seconds
# Revision: 0
# Processed by: cddbd v1.5.2PL0 Copyright (c) Steve Scherf et al.
# Submitted via: dBpowerAMP V12.0
#
DISCID=8b0c5e0c
DTITLE=Re:Ignition - Empty Heart: Loaded Gun
DYEAR=2006
DGENRE=Rock
TTITLE0=Short Memory
TTITLE1=Like a Beating
TTITLE2=Loosely Tied Ends
TTITLE3=Lies and Money
TTITLE4=By a Thread
TTITLE5=Head On
TTITLE6=Take What You Want!
TTITLE7=Spinning Circles
TTITLE8=Unbearable
TTITLE9=Left Behind
TTITLE10=Bright Red
TTITLE11=Empty Heart, Loaded Gun
EXTD=
EXTT0=
EXTT1=
EXTT2=
EXTT3=
EXTT4=
EXTT5=
EXTT6=
EXTT7=
EXTT8=
EXTT9=
EXTT10=
EXTT11=
PLAYORDER=
